<svg preserveAspectRatio="none" overflow="visible" style="display: block;" width="105.089" height="70.4799" viewBox="0 0 105.089 70.4799" fill="none" xmlns="http://www.w3.org/2000/svg">
<g id="bird" opacity="0.3">
<path id="Vector" fill-rule="evenodd" clip-rule="evenodd" d="M59.3999 24.8684C59.3999 25.0105 59.3999 25.2001 59.3999 25.2924L58.9485 28.1097C58.8832 28.3633 58.8097 28.6058 58.6072 28.797C57.7525 29.6025 56.1963 28.8052 56.5622 27.6101C57.3141 25.1442 56.9561 22.4113 55.6165 20.2572C54.2768 18.1031 51.9927 16.7862 49.8081 15.6279C47.46 14.38 44.9465 13.1436 42.2085 13.4445C37.8767 13.9217 34.4965 17.6611 31.7624 20.7114C31.0964 21.4559 29.5683 20.8943 29.6762 19.8482C29.9002 17.6871 29.2209 15.6237 27.9179 13.9003C25.1214 10.1997 20.3814 9.09691 15.9544 9.22917C11.2731 9.36431 6.37454 10.4808 2.35269 12.9427C1.00223 13.7624 -0.219084 11.64 1.12662 10.819C3.6442 9.27754 6.46426 8.25328 9.34549 7.62566C14.6619 6.46398 20.6977 6.11876 25.6359 8.79085C28.6897 10.4468 31.2304 13.4727 31.9618 16.9031C33.3101 15.5281 34.7465 14.2422 36.3578 13.1749C38.4292 11.803 40.8855 10.8688 43.3995 10.9491C46.5821 11.0514 49.5474 12.6269 52.2517 14.1731C54.7714 15.6139 57.1258 17.4821 58.3481 20.1879C59.0159 21.6655 59.3783 23.2631 59.3999 24.8684Z" fill="white"/>
<path id="Vector_2" fill-rule="evenodd" clip-rule="evenodd" d="M102.216 65.9573C102.216 66.0993 102.216 66.289 102.216 66.3813L101.765 69.1985C101.7 69.4522 101.626 69.6946 101.424 69.8859C100.569 70.6913 99.0127 69.894 99.3786 68.6989C100.131 66.2331 99.7725 63.5002 98.4329 61.3461C97.0932 59.192 94.8091 57.8751 92.6245 56.7167C90.2764 55.4688 87.7629 54.2324 85.0249 54.5333C80.6932 55.0106 77.3129 58.7499 74.5788 61.8003C73.9128 62.5448 72.3847 61.9832 72.4926 60.937C72.7166 58.776 72.0373 56.7126 70.7343 54.9892C67.9378 51.2885 63.1978 50.1858 58.7708 50.318C54.0895 50.4532 49.1909 51.5696 45.1691 54.0316C43.8186 54.8513 42.5973 52.7289 43.943 51.9079C46.4606 50.3664 49.2807 49.3421 52.1619 48.7145C57.4783 47.5528 63.5141 47.2076 68.4523 49.8797C71.5061 51.5357 74.0468 54.5615 74.7782 57.992C76.1265 56.617 77.5629 55.3311 79.1742 54.2638C81.2456 52.8919 83.7019 51.9577 86.2159 52.038C89.3985 52.1403 92.3638 53.7157 95.0682 55.2619C97.5878 56.7028 99.9422 58.571 101.164 61.2768C101.832 62.7543 102.195 64.352 102.216 65.9573Z" fill="white"/>
</g>
</svg>
